<?xml version="1.0" encoding="UTF-8" standalone="no"?>
<!-- Created with Inkscape (http://www.inkscape.org/) -->

<svg
   xmlns:dc="http://purl.org/dc/elements/1.1/"
   xmlns:cc="http://creativecommons.org/ns#"
   xmlns:rdf="http://www.w3.org/1999/02/22-rdf-syntax-ns#"
   xmlns:svg="http://www.w3.org/2000/svg"
   xmlns="http://www.w3.org/2000/svg"
   xmlns:sodipodi="http://sodipodi.sourceforge.net/DTD/sodipodi-0.dtd"
   xmlns:inkscape="http://www.inkscape.org/namespaces/inkscape"
   width="86"
   height="26"
   viewBox="0 0 22.754166 6.8791669"
   version="1.1"
   id="svg8"
   inkscape:version="0.92.2 5c3e80d, 2017-08-06"
   sodipodi:docname="honk.svg">
  <g
     inkscape:label="Layer 1"
     inkscape:groupmode="layer"
     id="layer1"
     transform="translate(0,-290.12082)">
    <path
       style="fill:#000000;stroke-width:0.26458335;fill-opacity:1"
       d="m 0.88057068,296.58186 c -0.2696172,-0.26962 -0.21998097,-5.4541 0.0563964,-5.89058 0.47810352,-0.75507 1.08098492,-0.10024 1.08098492,1.17413 0,1.01812 0.076087,1.20358 0.4630208,1.12856 0.3388583,-0.0657 0.4653767,-0.35115 0.4718067,-1.06447 0.010062,-1.11632 0.1946881,-1.39664 0.7735533,-1.17451 0.3322288,0.12749 0.408286,0.67574 0.408286,2.9431 0,2.58255 -0.037606,2.78643 -0.5139537,2.78643 -0.4155004,0 -0.529539,-0.21541 -0.5953126,-1.12448 -0.1154607,-1.59581 -0.8276545,-1.55072 -1.0074005,0.0638 -0.1258046,1.12999 -0.6409395,1.65448 -1.13738131,1.15804 z M 6.1784169,296.2856 c -1.0165506,-1.12328 -1.2971233,-3.45801 -0.5817952,-4.8413 0.3240122,-0.62657 0.5769756,-0.78061 1.2819098,-0.78061 1.3155846,0 1.8415538,0.74952 1.9728427,2.81138 0.1018966,1.60025 0.056753,1.77838 -0.6332279,2.49856 -0.8492451,0.88642 -1.4383182,0.97652 -2.0397294,0.31197 z m 1.3414127,-2.63353 c 0.061452,-1.26173 -0.010231,-1.63364 -0.3391993,-1.75988 -0.2849626,-0.10935 -0.4982625,0.0534 -0.6732315,0.51357 -0.315404,0.82957 -0.3156482,0.81103 0.026909,2.04463 0.4093377,1.4741 0.8939644,1.08153 0.9855218,-0.79832 z m 5.1483344,2.7663 c -0.144374,-0.1819 -0.405764,-0.77555 -0.580866,-1.31923 -0.438667,-1.36202 -0.808127,-1.49103 -0.81298,-0.28388 -0.0049,1.20686 -0.327951,1.80153 -0.866529,1.59486 -0.5208015,-0.19985 -0.5847412,-5.37443 -0.06885,-5.57239 0.450852,-0.17301 0.738715,0.0611 1.536766,1.24988 l 0.689487,1.02704 0.08419,-1.02704 c 0.06744,-0.82259 0.189537,-1.02705 0.613362,-1.02705 0.490491,0 0.530772,0.18371 0.551132,2.51354 0.02021,2.31298 -0.165339,3.175 -0.683423,3.175 -0.109885,0 -0.317914,-0.14882 -0.462289,-0.33073 z m 2.435322,-2.9e-4 c -0.07812,-0.20357 -0.107523,-1.49229 -0.06535,-2.86382 0.07048,-2.29175 0.119541,-2.4937 0.605853,-2.4937 0.380589,0 0.552674,0.2043 0.612887,0.72761 0.04605,0.40018 0.130056,0.7276 0.186688,0.7276 0.05663,0 0.539088,-0.29596 1.072125,-0.65769 0.533037,-0.36173 1.074105,-0.59282 1.202375,-0.51355 0.486364,0.30059 0.200016,0.9233 -0.689549,1.49954 -1.014874,0.65741 -1.177984,1.13989 -0.466296,1.37931 0.254661,0.0857 0.87491,0.49793 1.378331,0.91613 0.789872,0.65617 0.867105,0.81846 0.563559,1.18421 -0.316457,0.38131 -0.478224,0.33099 -1.612217,-0.50143 -0.693256,-0.5089 -1.326267,-0.92527 -1.406691,-0.92527 -0.08042,0 -0.183535,0.38598 -0.229136,0.85773 -0.08742,0.90441 -0.884125,1.36292 -1.152584,0.66333 z m 5.611689,0.15464 c -0.381772,-0.38178 -0.165344,-1.14653 0.324471,-1.14653 0.604953,0 0.894973,0.615 0.483881,1.02609 -0.339714,0.33971 -0.556738,0.37205 -0.808352,0.12043 z m -0.248343,-3.59393 c -0.148668,-1.99347 0.01285,-2.49593 0.715628,-2.22625 0.325701,0.12499 0.41466,0.58662 0.41466,2.1518 0,1.76845 -0.05554,1.99268 -0.493616,1.99268 -0.42322,0 -0.514016,-0.27356 -0.636672,-1.91823 z"
       id="path826"
       inkscape:connector-curvature="0" />
  </g>
</svg>
